<?xml version="1.0" encoding="utf-8" standalone="no"?>
<!DOCTYPE svg PUBLIC "-//W3C//DTD SVG 1.1//EN"
  "http://www.w3.org/Graphics/SVG/1.1/DTD/svg11.dtd">
<!-- Created with matplotlib (https://matplotlib.org/) -->
<svg height="779.346693pt" version="1.1" viewBox="0 0 795.715159 779.346693" width="795.715159pt" xmlns="http://www.w3.org/2000/svg" xmlns:xlink="http://www.w3.org/1999/xlink">
 <defs>
  <style type="text/css">
*{stroke-linecap:butt;stroke-linejoin:round;}
  </style>
 </defs>
 <g id="figure_1">
  <g id="patch_1">
   <path d="M 0 779.346693 
L 795.715159 779.346693 
L 795.715159 0 
L 0 0 
z
" style="fill:#ffffff;"/>
  </g>
  <g id="axes_1">
   <g id="patch_2">
    <path clip-path="url(#p6fe4bdbbe5)" d="M 410.743439 377.577748 
L 770.743439 377.577748 
L 770.743439 17.577748 
L 410.743439 17.577748 
z
" style="fill:#008000;stroke:#000000;stroke-linejoin:miter;stroke-width:0.1;"/>
   </g>
   <g id="patch_3">
    <path clip-path="url(#p6fe4bdbbe5)" d="M 410.743439 377.577748 
L 50.743439 377.577748 
L 50.743439 737.577748 
L 410.743439 737.577748 
z
" style="fill:#008000;stroke:#000000;stroke-linejoin:miter;stroke-width:0.1;"/>
   </g>
   <g id="patch_4">
    <path clip-path="url(#p6fe4bdbbe5)" d="M 230.743439 197.577748 
L 410.743439 197.577748 
L 410.743439 17.577748 
L 230.743439 17.577748 
z
" style="fill:#008000;stroke:#000000;stroke-linejoin:miter;stroke-width:0.1;"/>
   </g>
   <g id="patch_5">
    <path clip-path="url(#p6fe4bdbbe5)" d="M 230.743439 197.577748 
L 50.743439 197.577748 
L 50.743439 377.577748 
L 230.743439 377.577748 
z
" style="fill:#008000;stroke:#000000;stroke-linejoin:miter;stroke-width:0.1;"/>
   </g>
   <g id="patch_6">
    <path clip-path="url(#p6fe4bdbbe5)" d="M 590.743439 557.577748 
L 770.743439 557.577748 
L 770.743439 377.577748 
L 590.743439 377.577748 
z
" style="fill:#008000;stroke:#000000;stroke-linejoin:miter;stroke-width:0.1;"/>
   </g>
   <g id="patch_7">
    <path clip-path="url(#p6fe4bdbbe5)" d="M 590.743439 557.577748 
L 410.743439 557.577748 
L 410.743439 737.577748 
L 590.743439 737.577748 
z
" style="fill:#008000;stroke:#000000;stroke-linejoin:miter;stroke-width:0.1;"/>
   </g>
   <g id="patch_8">
    <path clip-path="url(#p6fe4bdbbe5)" d="M 140.743439 107.577748 
L 230.743439 107.577748 
L 230.743439 17.577748 
L 140.743439 17.577748 
z
" style="fill:#008000;stroke:#000000;stroke-linejoin:miter;stroke-width:0.1;"/>
   </g>
   <g id="patch_9">
    <path clip-path="url(#p6fe4bdbbe5)" d="M 140.743439 107.577748 
L 50.743439 107.577748 
L 50.743439 197.577748 
L 140.743439 197.577748 
z
" style="fill:#008000;stroke:#000000;stroke-linejoin:miter;stroke-width:0.1;"/>
   </g>
   <g id="patch_10">
    <path clip-path="url(#p6fe4bdbbe5)" d="M 320.743439 287.577748 
L 410.743439 287.577748 
L 410.743439 197.577748 
L 320.743439 197.577748 
z
" style="fill:#008000;stroke:#000000;stroke-linejoin:miter;stroke-width:0.1;"/>
   </g>
   <g id="patch_11">
    <path clip-path="url(#p6fe4bdbbe5)" d="M 320.743439 287.577748 
L 230.743439 287.577748 
L 230.743439 377.577748 
L 320.743439 377.577748 
z
" style="fill:#008000;stroke:#000000;stroke-linejoin:miter;stroke-width:0.1;"/>
   </g>
   <g id="patch_12">
    <path clip-path="url(#p6fe4bdbbe5)" d="M 500.743439 467.577748 
L 590.743439 467.577748 
L 590.743439 377.577748 
L 500.743439 377.577748 
z
" style="fill:#008000;stroke:#000000;stroke-linejoin:miter;stroke-width:0.1;"/>
   </g>
   <g id="patch_13">
    <path clip-path="url(#p6fe4bdbbe5)" d="M 500.743439 467.577748 
L 410.743439 467.577748 
L 410.743439 557.577748 
L 500.743439 557.577748 
z
" style="fill:#008000;stroke:#000000;stroke-linejoin:miter;stroke-width:0.1;"/>
   </g>
   <g id="patch_14">
    <path clip-path="url(#p6fe4bdbbe5)" d="M 680.743439 647.577748 
L 770.743439 647.577748 
L 770.743439 557.577748 
L 680.743439 557.577748 
z
" style="fill:#008000;stroke:#000000;stroke-linejoin:miter;stroke-width:0.1;"/>
   </g>
   <g id="patch_15">
    <path clip-path="url(#p6fe4bdbbe5)" d="M 680.743439 647.577748 
L 590.743439 647.577748 
L 590.743439 737.577748 
L 680.743439 737.577748 
z
" style="fill:#008000;stroke:#000000;stroke-linejoin:miter;stroke-width:0.1;"/>
   </g>
   <g id="patch_16">
    <path clip-path="url(#p6fe4bdbbe5)" d="M 95.743439 62.577748 
L 140.743439 62.577748 
L 140.743439 17.577748 
L 95.743439 17.577748 
z
" style="fill:#008000;stroke:#000000;stroke-linejoin:miter;stroke-width:0.1;"/>
   </g>
   <g id="patch_17">
    <path clip-path="url(#p6fe4bdbbe5)" d="M 95.743439 62.577748 
L 50.743439 62.577748 
L 50.743439 107.577748 
L 95.743439 107.577748 
z
" style="fill:#008000;stroke:#000000;stroke-linejoin:miter;stroke-width:0.1;"/>
   </g>
   <g id="patch_18">
    <path clip-path="url(#p6fe4bdbbe5)" d="M 185.743439 152.577748 
L 230.743439 152.577748 
L 230.743439 107.577748 
L 185.743439 107.577748 
z
" style="fill:#008000;stroke:#000000;stroke-linejoin:miter;stroke-width:0.1;"/>
   </g>
   <g id="patch_19">
    <path clip-path="url(#p6fe4bdbbe5)" d="M 185.743439 152.577748 
L 140.743439 152.577748 
L 140.743439 197.577748 
L 185.743439 197.577748 
z
" style="fill:#008000;stroke:#000000;stroke-linejoin:miter;stroke-width:0.1;"/>
   </g>
   <g id="patch_20">
    <path clip-path="url(#p6fe4bdbbe5)" d="M 275.743439 242.577748 
L 320.743439 242.577748 
L 320.743439 197.577748 
L 275.743439 197.577748 
z
" style="fill:#008000;stroke:#000000;stroke-linejoin:miter;stroke-width:0.1;"/>
   </g>
   <g id="patch_21">
    <path clip-path="url(#p6fe4bdbbe5)" d="M 275.743439 242.577748 
L 230.743439 242.577748 
L 230.743439 287.577748 
L 275.743439 287.577748 
z
" style="fill:#008000;stroke:#000000;stroke-linejoin:miter;stroke-width:0.1;"/>
   </g>
   <g id="patch_22">
    <path clip-path="url(#p6fe4bdbbe5)" d="M 365.743439 332.577748 
L 410.743439 332.577748 
L 410.743439 287.577748 
L 365.743439 287.577748 
z
" style="fill:#008000;stroke:#000000;stroke-linejoin:miter;stroke-width:0.1;"/>
   </g>
   <g id="patch_23">
    <path clip-path="url(#p6fe4bdbbe5)" d="M 365.743439 332.577748 
L 320.743439 332.577748 
L 320.743439 377.577748 
L 365.743439 377.577748 
z
" style="fill:#008000;stroke:#000000;stroke-linejoin:miter;stroke-width:0.1;"/>
   </g>
   <g id="patch_24">
    <path clip-path="url(#p6fe4bdbbe5)" d="M 455.743439 422.577748 
L 500.743439 422.577748 
L 500.743439 377.577748 
L 455.743439 377.577748 
z
" style="fill:#008000;stroke:#000000;stroke-linejoin:miter;stroke-width:0.1;"/>
   </g>
   <g id="patch_25">
    <path clip-path="url(#p6fe4bdbbe5)" d="M 455.743439 422.577748 
L 410.743439 422.577748 
L 410.743439 467.577748 
L 455.743439 467.577748 
z
" style="fill:#008000;stroke:#000000;stroke-linejoin:miter;stroke-width:0.1;"/>
   </g>
   <g id="patch_26">
    <path clip-path="url(#p6fe4bdbbe5)" d="M 545.743439 512.577748 
L 590.743439 512.577748 
L 590.743439 467.577748 
L 545.743439 467.577748 
z
" style="fill:#008000;stroke:#000000;stroke-linejoin:miter;stroke-width:0.1;"/>
   </g>
   <g id="patch_27">
    <path clip-path="url(#p6fe4bdbbe5)" d="M 545.743439 512.577748 
L 500.743439 512.577748 
L 500.743439 557.577748 
L 545.743439 557.577748 
z
" style="fill:#008000;stroke:#000000;stroke-linejoin:miter;stroke-width:0.1;"/>
   </g>
   <g id="patch_28">
    <path clip-path="url(#p6fe4bdbbe5)" d="M 635.743439 602.577748 
L 680.743439 602.577748 
L 680.743439 557.577748 
L 635.743439 557.577748 
z
" style="fill:#008000;stroke:#000000;stroke-linejoin:miter;stroke-width:0.1;"/>
   </g>
   <g id="patch_29">
    <path clip-path="url(#p6fe4bdbbe5)" d="M 635.743439 602.577748 
L 590.743439 602.577748 
L 590.743439 647.577748 
L 635.743439 647.577748 
z
" style="fill:#008000;stroke:#000000;stroke-linejoin:miter;stroke-width:0.1;"/>
   </g>
   <g id="patch_30">
    <path clip-path="url(#p6fe4bdbbe5)" d="M 725.743439 692.577748 
L 770.743439 692.577748 
L 770.743439 647.577748 
L 725.743439 647.577748 
z
" style="fill:#008000;stroke:#000000;stroke-linejoin:miter;stroke-width:0.1;"/>
   </g>
   <g id="patch_31">
    <path clip-path="url(#p6fe4bdbbe5)" d="M 725.743439 692.577748 
L 680.743439 692.577748 
L 680.743439 737.577748 
L 725.743439 737.577748 
z
" style="fill:#008000;stroke:#000000;stroke-linejoin:miter;stroke-width:0.1;"/>
   </g>
   <g id="patch_32">
    <path clip-path="url(#p6fe4bdbbe5)" d="M 50.743439 62.577748 
L 95.743439 62.577748 
L 95.743439 17.577748 
L 50.743439 17.577748 
z
" style="fill:#ff0000;stroke:#000000;stroke-linejoin:miter;stroke-width:0.1;"/>
   </g>
   <g id="patch_33">
    <path clip-path="url(#p6fe4bdbbe5)" d="M 95.743439 107.577748 
L 140.743439 107.577748 
L 140.743439 62.577748 
L 95.743439 62.577748 
z
" style="fill:#ff0000;stroke:#000000;stroke-linejoin:miter;stroke-width:0.1;"/>
   </g>
   <g id="patch_34">
    <path clip-path="url(#p6fe4bdbbe5)" d="M 140.743439 152.577748 
L 185.743439 152.577748 
L 185.743439 107.577748 
L 140.743439 107.577748 
z
" style="fill:#ff0000;stroke:#000000;stroke-linejoin:miter;stroke-width:0.1;"/>
   </g>
   <g id="patch_35">
    <path clip-path="url(#p6fe4bdbbe5)" d="M 185.743439 197.577748 
L 230.743439 197.577748 
L 230.743439 152.577748 
L 185.743439 152.577748 
z
" style="fill:#ff0000;stroke:#000000;stroke-linejoin:miter;stroke-width:0.1;"/>
   </g>
   <g id="patch_36">
    <path clip-path="url(#p6fe4bdbbe5)" d="M 230.743439 242.577748 
L 275.743439 242.577748 
L 275.743439 197.577748 
L 230.743439 197.577748 
z
" style="fill:#ff0000;stroke:#000000;stroke-linejoin:miter;stroke-width:0.1;"/>
   </g>
   <g id="patch_37">
    <path clip-path="url(#p6fe4bdbbe5)" d="M 275.743439 287.577748 
L 320.743439 287.577748 
L 320.743439 242.577748 
L 275.743439 242.577748 
z
" style="fill:#ff0000;stroke:#000000;stroke-linejoin:miter;stroke-width:0.1;"/>
   </g>
   <g id="patch_38">
    <path clip-path="url(#p6fe4bdbbe5)" d="M 320.743439 332.577748 
L 365.743439 332.577748 
L 365.743439 287.577748 
L 320.743439 287.577748 
z
" style="fill:#ff0000;stroke:#000000;stroke-linejoin:miter;stroke-width:0.1;"/>
   </g>
   <g id="patch_39">
    <path clip-path="url(#p6fe4bdbbe5)" d="M 365.743439 377.577748 
L 410.743439 377.577748 
L 410.743439 332.577748 
L 365.743439 332.577748 
z
" style="fill:#ff0000;stroke:#000000;stroke-linejoin:miter;stroke-width:0.1;"/>
   </g>
   <g id="patch_40">
    <path clip-path="url(#p6fe4bdbbe5)" d="M 410.743439 422.577748 
L 455.743439 422.577748 
L 455.743439 377.577748 
L 410.743439 377.577748 
z
" style="fill:#ff0000;stroke:#000000;stroke-linejoin:miter;stroke-width:0.1;"/>
   </g>
   <g id="patch_41">
    <path clip-path="url(#p6fe4bdbbe5)" d="M 455.743439 467.577748 
L 500.743439 467.577748 
L 500.743439 422.577748 
L 455.743439 422.577748 
z
" style="fill:#ff0000;stroke:#000000;stroke-linejoin:miter;stroke-width:0.1;"/>
   </g>
   <g id="patch_42">
    <path clip-path="url(#p6fe4bdbbe5)" d="M 500.743439 512.577748 
L 545.743439 512.577748 
L 545.743439 467.577748 
L 500.743439 467.577748 
z
" style="fill:#ff0000;stroke:#000000;stroke-linejoin:miter;stroke-width:0.1;"/>
   </g>
   <g id="patch_43">
    <path clip-path="url(#p6fe4bdbbe5)" d="M 545.743439 557.577748 
L 590.743439 557.577748 
L 590.743439 512.577748 
L 545.743439 512.577748 
z
" style="fill:#ff0000;stroke:#000000;stroke-linejoin:miter;stroke-width:0.1;"/>
   </g>
   <g id="patch_44">
    <path clip-path="url(#p6fe4bdbbe5)" d="M 590.743439 602.577748 
L 635.743439 602.577748 
L 635.743439 557.577748 
L 590.743439 557.577748 
z
" style="fill:#ff0000;stroke:#000000;stroke-linejoin:miter;stroke-width:0.1;"/>
   </g>
   <g id="patch_45">
    <path clip-path="url(#p6fe4bdbbe5)" d="M 635.743439 647.577748 
L 680.743439 647.577748 
L 680.743439 602.577748 
L 635.743439 602.577748 
z
" style="fill:#ff0000;stroke:#000000;stroke-linejoin:miter;stroke-width:0.1;"/>
   </g>
   <g id="patch_46">
    <path clip-path="url(#p6fe4bdbbe5)" d="M 680.743439 692.577748 
L 725.743439 692.577748 
L 725.743439 647.577748 
L 680.743439 647.577748 
z
" style="fill:#ff0000;stroke:#000000;stroke-linejoin:miter;stroke-width:0.1;"/>
   </g>
   <g id="patch_47">
    <path clip-path="url(#p6fe4bdbbe5)" d="M 725.743439 737.577748 
L 770.743439 737.577748 
L 770.743439 692.577748 
L 725.743439 692.577748 
z
" style="fill:#ff0000;stroke:#000000;stroke-linejoin:miter;stroke-width:0.1;"/>
   </g>
   <g id="text_1">
    <!-- 04 -->
    <defs>
     <path d="M 42 31.84375 
C 42 37.96875 41.90625 48.421875 37.703125 56.453125 
C 34 63.484375 28.09375 66 22.90625 66 
C 18.09375 66 12 63.78125 8.203125 56.5625 
C 4.203125 49.015625 3.796875 39.671875 3.796875 31.84375 
C 3.796875 26.109375 3.90625 17.375 7 9.734375 
C 11.296875 -0.609375 19 -2 22.90625 -2 
C 27.5 -2 34.5 -0.109375 38.59375 9.4375 
C 41.59375 16.375 42 24.5 42 31.84375 
z
M 22.90625 -0.40625 
C 16.5 -0.40625 12.703125 5.125 11.296875 12.75 
C 10.203125 18.6875 10.203125 27.328125 10.203125 32.953125 
C 10.203125 40.6875 10.203125 47.109375 11.5 53.234375 
C 13.40625 61.78125 19 64.390625 22.90625 64.390625 
C 27 64.390625 32.296875 61.671875 34.203125 53.4375 
C 35.5 47.71875 35.59375 40.984375 35.59375 32.953125 
C 35.59375 26.421875 35.59375 18.375 34.40625 12.453125 
C 32.296875 1.5 26.40625 -0.40625 22.90625 -0.40625 
z
" id="CMR17-48"/>
     <path d="M 33.59375 64.796875 
C 33.59375 66.890625 33.5 67 31.703125 67 
L 2 19.59375 
L 2 17 
L 27.796875 17 
L 27.796875 7.1875 
C 27.796875 3.59375 27.59375 2.59375 20.59375 2.59375 
L 18.703125 2.59375 
L 18.703125 0 
C 21.90625 0.1875 27.296875 0.1875 30.703125 0.1875 
C 34.09375 0.1875 39.5 0.1875 42.703125 0 
L 42.703125 2.59375 
L 40.796875 2.59375 
C 33.796875 2.59375 33.59375 3.59375 33.59375 7.1875 
L 33.59375 17 
L 43.796875 17 
L 43.796875 19.59375 
L 33.59375 19.59375 
z
M 28.09375 58.171875 
L 28.09375 19.59375 
L 4 19.59375 
z
" id="CMR17-52"/>
    </defs>
    <g transform="translate(590.743439 197.577748)scale(0.3 -0.3)">
     <use transform="scale(0.996264)" xlink:href="#CMR17-48"/>
     <use transform="translate(45.690477 0)scale(0.996264)" xlink:href="#CMR17-52"/>
    </g>
   </g>
   <g id="text_2">
    <!-- 04 -->
    <g transform="translate(230.743439 557.577748)scale(0.3 -0.3)">
     <use transform="scale(0.996264)" xlink:href="#CMR17-48"/>
     <use transform="translate(45.690477 0)scale(0.996264)" xlink:href="#CMR17-52"/>
    </g>
   </g>
   <g id="text_3">
    <!-- 04 -->
    <g transform="translate(320.743439 107.577748)scale(0.15 -0.15)">
     <use transform="scale(0.996264)" xlink:href="#CMR17-48"/>
     <use transform="translate(45.690477 0)scale(0.996264)" xlink:href="#CMR17-52"/>
    </g>
   </g>
   <g id="text_4">
    <!-- 04 -->
    <g transform="translate(140.743439 287.577748)scale(0.15 -0.15)">
     <use transform="scale(0.996264)" xlink:href="#CMR17-48"/>
     <use transform="translate(45.690477 0)scale(0.996264)" xlink:href="#CMR17-52"/>
    </g>
   </g>
   <g id="text_5">
    <!-- 04 -->
    <g transform="translate(680.743439 467.577748)scale(0.15 -0.15)">
     <use transform="scale(0.996264)" xlink:href="#CMR17-48"/>
     <use transform="translate(45.690477 0)scale(0.996264)" xlink:href="#CMR17-52"/>
    </g>
   </g>
   <g id="text_6">
    <!-- 04 -->
    <g transform="translate(500.743439 647.577748)scale(0.15 -0.15)">
     <use transform="scale(0.996264)" xlink:href="#CMR17-48"/>
     <use transform="translate(45.690477 0)scale(0.996264)" xlink:href="#CMR17-52"/>
    </g>
   </g>
   <g id="text_7">
    <!-- 04 -->
    <g transform="translate(185.743439 62.577748)scale(0.15 -0.15)">
     <use transform="scale(0.996264)" xlink:href="#CMR17-48"/>
     <use transform="translate(45.690477 0)scale(0.996264)" xlink:href="#CMR17-52"/>
    </g>
   </g>
   <g id="text_8">
    <!-- 04 -->
    <g transform="translate(95.743439 152.577748)scale(0.15 -0.15)">
     <use transform="scale(0.996264)" xlink:href="#CMR17-48"/>
     <use transform="translate(45.690477 0)scale(0.996264)" xlink:href="#CMR17-52"/>
    </g>
   </g>
   <g id="text_9">
    <!-- 04 -->
    <g transform="translate(365.743439 242.577748)scale(0.1 -0.1)">
     <use transform="scale(0.996264)" xlink:href="#CMR17-48"/>
     <use transform="translate(45.690477 0)scale(0.996264)" xlink:href="#CMR17-52"/>
    </g>
   </g>
   <g id="text_10">
    <!-- 04 -->
    <g transform="translate(275.743439 332.577748)scale(0.1 -0.1)">
     <use transform="scale(0.996264)" xlink:href="#CMR17-48"/>
     <use transform="translate(45.690477 0)scale(0.996264)" xlink:href="#CMR17-52"/>
    </g>
   </g>
   <g id="text_11">
    <!-- 04 -->
    <g transform="translate(545.743439 422.577748)scale(0.1 -0.1)">
     <use transform="scale(0.996264)" xlink:href="#CMR17-48"/>
     <use transform="translate(45.690477 0)scale(0.996264)" xlink:href="#CMR17-52"/>
    </g>
   </g>
   <g id="text_12">
    <!-- 04 -->
    <g transform="translate(455.743439 512.577748)scale(0.1 -0.1)">
     <use transform="scale(0.996264)" xlink:href="#CMR17-48"/>
     <use transform="translate(45.690477 0)scale(0.996264)" xlink:href="#CMR17-52"/>
    </g>
   </g>
   <g id="text_13">
    <!-- 04 -->
    <g transform="translate(725.743439 602.577748)scale(0.1 -0.1)">
     <use transform="scale(0.996264)" xlink:href="#CMR17-48"/>
     <use transform="translate(45.690477 0)scale(0.996264)" xlink:href="#CMR17-52"/>
    </g>
   </g>
   <g id="text_14">
    <!-- 04 -->
    <g transform="translate(635.743439 692.577748)scale(0.1 -0.1)">
     <use transform="scale(0.996264)" xlink:href="#CMR17-48"/>
     <use transform="translate(45.690477 0)scale(0.996264)" xlink:href="#CMR17-52"/>
    </g>
   </g>
   <g id="text_15">
    <!-- 04 -->
    <g transform="translate(118.243439 40.077748)scale(0.1 -0.1)">
     <use transform="scale(0.996264)" xlink:href="#CMR17-48"/>
     <use transform="translate(45.690477 0)scale(0.996264)" xlink:href="#CMR17-52"/>
    </g>
   </g>
   <g id="text_16">
    <!-- 04 -->
    <g transform="translate(73.243439 85.077748)scale(0.1 -0.1)">
     <use transform="scale(0.996264)" xlink:href="#CMR17-48"/>
     <use transform="translate(45.690477 0)scale(0.996264)" xlink:href="#CMR17-52"/>
    </g>
   </g>
   <g id="text_17">
    <!-- 04 -->
    <g transform="translate(208.243439 130.077748)scale(0.1 -0.1)">
     <use transform="scale(0.996264)" xlink:href="#CMR17-48"/>
     <use transform="translate(45.690477 0)scale(0.996264)" xlink:href="#CMR17-52"/>
    </g>
   </g>
   <g id="text_18">
    <!-- 04 -->
    <g transform="translate(163.243439 175.077748)scale(0.1 -0.1)">
     <use transform="scale(0.996264)" xlink:href="#CMR17-48"/>
     <use transform="translate(45.690477 0)scale(0.996264)" xlink:href="#CMR17-52"/>
    </g>
   </g>
   <g id="text_19">
    <!-- 04 -->
    <g transform="translate(298.243439 220.077748)scale(0.075 -0.075)">
     <use transform="scale(0.996264)" xlink:href="#CMR17-48"/>
     <use transform="translate(45.690477 0)scale(0.996264)" xlink:href="#CMR17-52"/>
    </g>
   </g>
   <g id="text_20">
    <!-- 04 -->
    <g transform="translate(253.243439 265.077748)scale(0.075 -0.075)">
     <use transform="scale(0.996264)" xlink:href="#CMR17-48"/>
     <use transform="translate(45.690477 0)scale(0.996264)" xlink:href="#CMR17-52"/>
    </g>
   </g>
   <g id="text_21">
    <!-- 04 -->
    <g transform="translate(388.243439 310.077748)scale(0.075 -0.075)">
     <use transform="scale(0.996264)" xlink:href="#CMR17-48"/>
     <use transform="translate(45.690477 0)scale(0.996264)" xlink:href="#CMR17-52"/>
    </g>
   </g>
   <g id="text_22">
    <!-- 04 -->
    <g transform="translate(343.243439 355.077748)scale(0.075 -0.075)">
     <use transform="scale(0.996264)" xlink:href="#CMR17-48"/>
     <use transform="translate(45.690477 0)scale(0.996264)" xlink:href="#CMR17-52"/>
    </g>
   </g>
   <g id="text_23">
    <!-- 04 -->
    <g transform="translate(478.243439 400.077748)scale(0.075 -0.075)">
     <use transform="scale(0.996264)" xlink:href="#CMR17-48"/>
     <use transform="translate(45.690477 0)scale(0.996264)" xlink:href="#CMR17-52"/>
    </g>
   </g>
   <g id="text_24">
    <!-- 04 -->
    <g transform="translate(433.243439 445.077748)scale(0.075 -0.075)">
     <use transform="scale(0.996264)" xlink:href="#CMR17-48"/>
     <use transform="translate(45.690477 0)scale(0.996264)" xlink:href="#CMR17-52"/>
    </g>
   </g>
   <g id="text_25">
    <!-- 04 -->
    <g transform="translate(568.243439 490.077748)scale(0.075 -0.075)">
     <use transform="scale(0.996264)" xlink:href="#CMR17-48"/>
     <use transform="translate(45.690477 0)scale(0.996264)" xlink:href="#CMR17-52"/>
    </g>
   </g>
   <g id="text_26">
    <!-- 04 -->
    <g transform="translate(523.243439 535.077748)scale(0.075 -0.075)">
     <use transform="scale(0.996264)" xlink:href="#CMR17-48"/>
     <use transform="translate(45.690477 0)scale(0.996264)" xlink:href="#CMR17-52"/>
    </g>
   </g>
   <g id="text_27">
    <!-- 04 -->
    <g transform="translate(658.243439 580.077748)scale(0.075 -0.075)">
     <use transform="scale(0.996264)" xlink:href="#CMR17-48"/>
     <use transform="translate(45.690477 0)scale(0.996264)" xlink:href="#CMR17-52"/>
    </g>
   </g>
   <g id="text_28">
    <!-- 04 -->
    <g transform="translate(613.243439 625.077748)scale(0.075 -0.075)">
     <use transform="scale(0.996264)" xlink:href="#CMR17-48"/>
     <use transform="translate(45.690477 0)scale(0.996264)" xlink:href="#CMR17-52"/>
    </g>
   </g>
   <g id="text_29">
    <!-- 04 -->
    <g transform="translate(748.243439 670.077748)scale(0.075 -0.075)">
     <use transform="scale(0.996264)" xlink:href="#CMR17-48"/>
     <use transform="translate(45.690477 0)scale(0.996264)" xlink:href="#CMR17-52"/>
    </g>
   </g>
   <g id="text_30">
    <!-- 04 -->
    <g transform="translate(703.243439 715.077748)scale(0.075 -0.075)">
     <use transform="scale(0.996264)" xlink:href="#CMR17-48"/>
     <use transform="translate(45.690477 0)scale(0.996264)" xlink:href="#CMR17-52"/>
    </g>
   </g>
  </g>
 </g>
 <defs>
  <clipPath id="p6fe4bdbbe5">
   <rect height="720" width="720" x="50.743439" y="17.577748"/>
  </clipPath>
 </defs>
</svg>
