<?xml version="1.0" encoding="utf-8" standalone="no"?>
<!DOCTYPE svg PUBLIC "-//W3C//DTD SVG 1.1//EN"
  "http://www.w3.org/Graphics/SVG/1.1/DTD/svg11.dtd">
<!-- Created with matplotlib (https://matplotlib.org/) -->
<svg height="779.346693pt" version="1.1" viewBox="0 0 795.715159 779.346693" width="795.715159pt" xmlns="http://www.w3.org/2000/svg" xmlns:xlink="http://www.w3.org/1999/xlink">
 <defs>
  <style type="text/css">
*{stroke-linecap:butt;stroke-linejoin:round;}
  </style>
 </defs>
 <g id="figure_1">
  <g id="patch_1">
   <path d="M 0 779.346693 
L 795.715159 779.346693 
L 795.715159 0 
L 0 0 
z
" style="fill:#ffffff;"/>
  </g>
  <g id="axes_1">
   <g id="patch_2">
    <path clip-path="url(#pc93450107f)" d="M 410.743439 377.577748 
L 770.743439 377.577748 
L 770.743439 17.577748 
L 410.743439 17.577748 
z
" style="fill:#008000;stroke:#000000;stroke-linejoin:miter;stroke-width:0.1;"/>
   </g>
   <g id="patch_3">
    <path clip-path="url(#pc93450107f)" d="M 410.743439 377.577748 
L 50.743439 377.577748 
L 50.743439 737.577748 
L 410.743439 737.577748 
z
" style="fill:#008000;stroke:#000000;stroke-linejoin:miter;stroke-width:0.1;"/>
   </g>
   <g id="patch_4">
    <path clip-path="url(#pc93450107f)" d="M 230.743439 197.577748 
L 410.743439 197.577748 
L 410.743439 17.577748 
L 230.743439 17.577748 
z
" style="fill:#008000;opacity:0.481081;stroke:#000000;stroke-linejoin:miter;stroke-width:0.1;"/>
   </g>
   <g id="patch_5">
    <path clip-path="url(#pc93450107f)" d="M 230.743439 197.577748 
L 50.743439 197.577748 
L 50.743439 377.577748 
L 230.743439 377.577748 
z
" style="fill:#008000;opacity:0.481081;stroke:#000000;stroke-linejoin:miter;stroke-width:0.1;"/>
   </g>
   <g id="patch_6">
    <path clip-path="url(#pc93450107f)" d="M 590.743439 557.577748 
L 770.743439 557.577748 
L 770.743439 377.577748 
L 590.743439 377.577748 
z
" style="fill:#008000;opacity:0.542015;stroke:#000000;stroke-linejoin:miter;stroke-width:0.1;"/>
   </g>
   <g id="patch_7">
    <path clip-path="url(#pc93450107f)" d="M 590.743439 557.577748 
L 410.743439 557.577748 
L 410.743439 737.577748 
L 590.743439 737.577748 
z
" style="fill:#008000;opacity:0.542015;stroke:#000000;stroke-linejoin:miter;stroke-width:0.1;"/>
   </g>
   <g id="patch_8">
    <path clip-path="url(#pc93450107f)" d="M 140.743439 107.577748 
L 230.743439 107.577748 
L 230.743439 17.577748 
L 140.743439 17.577748 
z
" style="fill:#008000;opacity:0.430631;stroke:#000000;stroke-linejoin:miter;stroke-width:0.1;"/>
   </g>
   <g id="patch_9">
    <path clip-path="url(#pc93450107f)" d="M 140.743439 107.577748 
L 50.743439 107.577748 
L 50.743439 197.577748 
L 140.743439 197.577748 
z
" style="fill:#008000;opacity:0.430631;stroke:#000000;stroke-linejoin:miter;stroke-width:0.1;"/>
   </g>
   <g id="patch_10">
    <path clip-path="url(#pc93450107f)" d="M 320.743439 287.577748 
L 410.743439 287.577748 
L 410.743439 197.577748 
L 320.743439 197.577748 
z
" style="fill:#008000;opacity:0.476495;stroke:#000000;stroke-linejoin:miter;stroke-width:0.1;"/>
   </g>
   <g id="patch_11">
    <path clip-path="url(#pc93450107f)" d="M 320.743439 287.577748 
L 230.743439 287.577748 
L 230.743439 377.577748 
L 320.743439 377.577748 
z
" style="fill:#008000;opacity:0.476495;stroke:#000000;stroke-linejoin:miter;stroke-width:0.1;"/>
   </g>
   <g id="patch_12">
    <path clip-path="url(#pc93450107f)" d="M 500.743439 467.577748 
L 590.743439 467.577748 
L 590.743439 377.577748 
L 500.743439 377.577748 
z
" style="fill:#008000;opacity:0.466667;stroke:#000000;stroke-linejoin:miter;stroke-width:0.1;"/>
   </g>
   <g id="patch_13">
    <path clip-path="url(#pc93450107f)" d="M 500.743439 467.577748 
L 410.743439 467.577748 
L 410.743439 557.577748 
L 500.743439 557.577748 
z
" style="fill:#008000;opacity:0.466667;stroke:#000000;stroke-linejoin:miter;stroke-width:0.1;"/>
   </g>
   <g id="patch_14">
    <path clip-path="url(#pc93450107f)" d="M 680.743439 647.577748 
L 770.743439 647.577748 
L 770.743439 557.577748 
L 680.743439 557.577748 
z
" style="fill:#008000;opacity:0.520393;stroke:#000000;stroke-linejoin:miter;stroke-width:0.1;"/>
   </g>
   <g id="patch_15">
    <path clip-path="url(#pc93450107f)" d="M 680.743439 647.577748 
L 590.743439 647.577748 
L 590.743439 737.577748 
L 680.743439 737.577748 
z
" style="fill:#008000;opacity:0.520393;stroke:#000000;stroke-linejoin:miter;stroke-width:0.1;"/>
   </g>
   <g id="patch_16">
    <path clip-path="url(#pc93450107f)" d="M 95.743439 62.577748 
L 140.743439 62.577748 
L 140.743439 17.577748 
L 95.743439 17.577748 
z
" style="fill:#008000;opacity:0.2;stroke:#000000;stroke-linejoin:miter;stroke-width:0.1;"/>
   </g>
   <g id="patch_17">
    <path clip-path="url(#pc93450107f)" d="M 95.743439 62.577748 
L 50.743439 62.577748 
L 50.743439 107.577748 
L 95.743439 107.577748 
z
" style="fill:#008000;opacity:0.2;stroke:#000000;stroke-linejoin:miter;stroke-width:0.1;"/>
   </g>
   <g id="patch_18">
    <path clip-path="url(#pc93450107f)" d="M 185.743439 152.577748 
L 230.743439 152.577748 
L 230.743439 107.577748 
L 185.743439 107.577748 
z
" style="fill:#008000;opacity:0.221622;stroke:#000000;stroke-linejoin:miter;stroke-width:0.1;"/>
   </g>
   <g id="patch_19">
    <path clip-path="url(#pc93450107f)" d="M 185.743439 152.577748 
L 140.743439 152.577748 
L 140.743439 197.577748 
L 185.743439 197.577748 
z
" style="fill:#008000;opacity:0.221622;stroke:#000000;stroke-linejoin:miter;stroke-width:0.1;"/>
   </g>
   <g id="patch_20">
    <path clip-path="url(#pc93450107f)" d="M 275.743439 242.577748 
L 320.743439 242.577748 
L 320.743439 197.577748 
L 275.743439 197.577748 
z
" style="fill:#008000;opacity:0.208518;stroke:#000000;stroke-linejoin:miter;stroke-width:0.1;"/>
   </g>
   <g id="patch_21">
    <path clip-path="url(#pc93450107f)" d="M 275.743439 242.577748 
L 230.743439 242.577748 
L 230.743439 287.577748 
L 275.743439 287.577748 
z
" style="fill:#008000;opacity:0.208518;stroke:#000000;stroke-linejoin:miter;stroke-width:0.1;"/>
   </g>
   <g id="patch_22">
    <path clip-path="url(#pc93450107f)" d="M 365.743439 332.577748 
L 410.743439 332.577748 
L 410.743439 287.577748 
L 365.743439 287.577748 
z
" style="fill:#008000;opacity:0.245209;stroke:#000000;stroke-linejoin:miter;stroke-width:0.1;"/>
   </g>
   <g id="patch_23">
    <path clip-path="url(#pc93450107f)" d="M 365.743439 332.577748 
L 320.743439 332.577748 
L 320.743439 377.577748 
L 365.743439 377.577748 
z
" style="fill:#008000;opacity:0.245209;stroke:#000000;stroke-linejoin:miter;stroke-width:0.1;"/>
   </g>
   <g id="patch_24">
    <path clip-path="url(#pc93450107f)" d="M 455.743439 422.577748 
L 500.743439 422.577748 
L 500.743439 377.577748 
L 455.743439 377.577748 
z
" style="fill:#008000;opacity:0.241278;stroke:#000000;stroke-linejoin:miter;stroke-width:0.1;"/>
   </g>
   <g id="patch_25">
    <path clip-path="url(#pc93450107f)" d="M 455.743439 422.577748 
L 410.743439 422.577748 
L 410.743439 467.577748 
L 455.743439 467.577748 
z
" style="fill:#008000;opacity:0.241278;stroke:#000000;stroke-linejoin:miter;stroke-width:0.1;"/>
   </g>
   <g id="patch_26">
    <path clip-path="url(#pc93450107f)" d="M 545.743439 512.577748 
L 590.743439 512.577748 
L 590.743439 467.577748 
L 545.743439 467.577748 
z
" style="fill:#008000;opacity:0.233415;stroke:#000000;stroke-linejoin:miter;stroke-width:0.1;"/>
   </g>
   <g id="patch_27">
    <path clip-path="url(#pc93450107f)" d="M 545.743439 512.577748 
L 500.743439 512.577748 
L 500.743439 557.577748 
L 545.743439 557.577748 
z
" style="fill:#008000;opacity:0.233415;stroke:#000000;stroke-linejoin:miter;stroke-width:0.1;"/>
   </g>
   <g id="patch_28">
    <path clip-path="url(#pc93450107f)" d="M 635.743439 602.577748 
L 680.743439 602.577748 
L 680.743439 557.577748 
L 635.743439 557.577748 
z
" style="fill:#008000;opacity:0.242588;stroke:#000000;stroke-linejoin:miter;stroke-width:0.1;"/>
   </g>
   <g id="patch_29">
    <path clip-path="url(#pc93450107f)" d="M 635.743439 602.577748 
L 590.743439 602.577748 
L 590.743439 647.577748 
L 635.743439 647.577748 
z
" style="fill:#008000;opacity:0.242588;stroke:#000000;stroke-linejoin:miter;stroke-width:0.1;"/>
   </g>
   <g id="patch_30">
    <path clip-path="url(#pc93450107f)" d="M 725.743439 692.577748 
L 770.743439 692.577748 
L 770.743439 647.577748 
L 725.743439 647.577748 
z
" style="fill:#008000;opacity:0.239967;stroke:#000000;stroke-linejoin:miter;stroke-width:0.1;"/>
   </g>
   <g id="patch_31">
    <path clip-path="url(#pc93450107f)" d="M 725.743439 692.577748 
L 680.743439 692.577748 
L 680.743439 737.577748 
L 725.743439 737.577748 
z
" style="fill:#008000;opacity:0.239967;stroke:#000000;stroke-linejoin:miter;stroke-width:0.1;"/>
   </g>
   <g id="patch_32">
    <path clip-path="url(#pc93450107f)" d="M 50.743439 62.577748 
L 95.743439 62.577748 
L 95.743439 17.577748 
L 50.743439 17.577748 
z
" style="fill:#ff0000;stroke:#000000;stroke-linejoin:miter;stroke-width:0.1;"/>
   </g>
   <g id="patch_33">
    <path clip-path="url(#pc93450107f)" d="M 95.743439 107.577748 
L 140.743439 107.577748 
L 140.743439 62.577748 
L 95.743439 62.577748 
z
" style="fill:#ff0000;stroke:#000000;stroke-linejoin:miter;stroke-width:0.1;"/>
   </g>
   <g id="patch_34">
    <path clip-path="url(#pc93450107f)" d="M 140.743439 152.577748 
L 185.743439 152.577748 
L 185.743439 107.577748 
L 140.743439 107.577748 
z
" style="fill:#ff0000;stroke:#000000;stroke-linejoin:miter;stroke-width:0.1;"/>
   </g>
   <g id="patch_35">
    <path clip-path="url(#pc93450107f)" d="M 185.743439 197.577748 
L 230.743439 197.577748 
L 230.743439 152.577748 
L 185.743439 152.577748 
z
" style="fill:#ff0000;stroke:#000000;stroke-linejoin:miter;stroke-width:0.1;"/>
   </g>
   <g id="patch_36">
    <path clip-path="url(#pc93450107f)" d="M 230.743439 242.577748 
L 275.743439 242.577748 
L 275.743439 197.577748 
L 230.743439 197.577748 
z
" style="fill:#ff0000;stroke:#000000;stroke-linejoin:miter;stroke-width:0.1;"/>
   </g>
   <g id="patch_37">
    <path clip-path="url(#pc93450107f)" d="M 275.743439 287.577748 
L 320.743439 287.577748 
L 320.743439 242.577748 
L 275.743439 242.577748 
z
" style="fill:#ff0000;stroke:#000000;stroke-linejoin:miter;stroke-width:0.1;"/>
   </g>
   <g id="patch_38">
    <path clip-path="url(#pc93450107f)" d="M 320.743439 332.577748 
L 365.743439 332.577748 
L 365.743439 287.577748 
L 320.743439 287.577748 
z
" style="fill:#ff0000;stroke:#000000;stroke-linejoin:miter;stroke-width:0.1;"/>
   </g>
   <g id="patch_39">
    <path clip-path="url(#pc93450107f)" d="M 365.743439 377.577748 
L 410.743439 377.577748 
L 410.743439 332.577748 
L 365.743439 332.577748 
z
" style="fill:#ff0000;stroke:#000000;stroke-linejoin:miter;stroke-width:0.1;"/>
   </g>
   <g id="patch_40">
    <path clip-path="url(#pc93450107f)" d="M 410.743439 422.577748 
L 455.743439 422.577748 
L 455.743439 377.577748 
L 410.743439 377.577748 
z
" style="fill:#ff0000;stroke:#000000;stroke-linejoin:miter;stroke-width:0.1;"/>
   </g>
   <g id="patch_41">
    <path clip-path="url(#pc93450107f)" d="M 455.743439 467.577748 
L 500.743439 467.577748 
L 500.743439 422.577748 
L 455.743439 422.577748 
z
" style="fill:#ff0000;stroke:#000000;stroke-linejoin:miter;stroke-width:0.1;"/>
   </g>
   <g id="patch_42">
    <path clip-path="url(#pc93450107f)" d="M 500.743439 512.577748 
L 545.743439 512.577748 
L 545.743439 467.577748 
L 500.743439 467.577748 
z
" style="fill:#ff0000;stroke:#000000;stroke-linejoin:miter;stroke-width:0.1;"/>
   </g>
   <g id="patch_43">
    <path clip-path="url(#pc93450107f)" d="M 545.743439 557.577748 
L 590.743439 557.577748 
L 590.743439 512.577748 
L 545.743439 512.577748 
z
" style="fill:#ff0000;stroke:#000000;stroke-linejoin:miter;stroke-width:0.1;"/>
   </g>
   <g id="patch_44">
    <path clip-path="url(#pc93450107f)" d="M 590.743439 602.577748 
L 635.743439 602.577748 
L 635.743439 557.577748 
L 590.743439 557.577748 
z
" style="fill:#ff0000;stroke:#000000;stroke-linejoin:miter;stroke-width:0.1;"/>
   </g>
   <g id="patch_45">
    <path clip-path="url(#pc93450107f)" d="M 635.743439 647.577748 
L 680.743439 647.577748 
L 680.743439 602.577748 
L 635.743439 602.577748 
z
" style="fill:#ff0000;stroke:#000000;stroke-linejoin:miter;stroke-width:0.1;"/>
   </g>
   <g id="patch_46">
    <path clip-path="url(#pc93450107f)" d="M 680.743439 692.577748 
L 725.743439 692.577748 
L 725.743439 647.577748 
L 680.743439 647.577748 
z
" style="fill:#ff0000;stroke:#000000;stroke-linejoin:miter;stroke-width:0.1;"/>
   </g>
   <g id="patch_47">
    <path clip-path="url(#pc93450107f)" d="M 725.743439 737.577748 
L 770.743439 737.577748 
L 770.743439 692.577748 
L 725.743439 692.577748 
z
" style="fill:#ff0000;stroke:#000000;stroke-linejoin:miter;stroke-width:0.1;"/>
   </g>
   <g id="text_1">
    <!-- 1645 -->
    <defs>
     <path d="M 26.59375 63.796875 
C 26.59375 65.890625 26.5 66 25.09375 66 
C 21.203125 61.359375 15.296875 59.890625 9.703125 59.6875 
C 9.40625 59.6875 8.90625 59.6875 8.796875 59.5 
C 8.703125 59.296875 8.703125 59.09375 8.703125 57 
C 11.796875 57 17 57.59375 21 59.984375 
L 21 7.296875 
C 21 3.796875 20.796875 2.59375 12.203125 2.59375 
L 9.203125 2.59375 
L 9.203125 0 
C 14 0.09375 19 0.1875 23.796875 0.1875 
C 28.59375 0.1875 33.59375 0.09375 38.40625 0 
L 38.40625 2.59375 
L 35.40625 2.59375 
C 26.796875 2.59375 26.59375 3.6875 26.59375 7.296875 
z
" id="CMR17-49"/>
     <path d="M 10.59375 34.34375 
C 10.59375 58 21.796875 63.6875 28.296875 63.6875 
C 30.40625 63.6875 35.5 63.265625 37.5 59.09375 
C 35.90625 59.09375 32.90625 59.09375 32.90625 55.59375 
C 32.90625 52.890625 35.09375 52 36.5 52 
C 37.40625 52 40.09375 52.390625 40.09375 55.796875 
C 40.09375 62.296875 35.09375 66 28.203125 66 
C 16.296875 66 3.796875 53.296875 3.796875 31.421875 
C 3.796875 4.015625 15.09375 -2 23.09375 -2 
C 32.796875 -2 42 6.734375 42 20.234375 
C 42 32.828125 33.90625 42 23.703125 42 
C 17.59375 42 13.09375 37.96875 10.59375 30.921875 
z
M 23.09375 0.390625 
C 10.796875 0.390625 10.796875 18.9375 10.796875 22.65625 
C 10.796875 29.90625 14.203125 40.390625 23.5 40.390625 
C 25.203125 40.390625 30.09375 40.390625 33.40625 33.4375 
C 35.203125 29.515625 35.203125 25.375 35.203125 20.34375 
C 35.203125 14.90625 35.203125 10.875 33.09375 6.84375 
C 30.90625 2.703125 27.703125 0.390625 23.09375 0.390625 
z
" id="CMR17-54"/>
     <path d="M 33.59375 64.796875 
C 33.59375 66.890625 33.5 67 31.703125 67 
L 2 19.59375 
L 2 17 
L 27.796875 17 
L 27.796875 7.1875 
C 27.796875 3.59375 27.59375 2.59375 20.59375 2.59375 
L 18.703125 2.59375 
L 18.703125 0 
C 21.90625 0.1875 27.296875 0.1875 30.703125 0.1875 
C 34.09375 0.1875 39.5 0.1875 42.703125 0 
L 42.703125 2.59375 
L 40.796875 2.59375 
C 33.796875 2.59375 33.59375 3.59375 33.59375 7.1875 
L 33.59375 17 
L 43.796875 17 
L 43.796875 19.59375 
L 33.59375 19.59375 
z
M 28.09375 58.171875 
L 28.09375 19.59375 
L 4 19.59375 
z
" id="CMR17-52"/>
     <path d="M 11.40625 58.59375 
C 12.40625 58.1875 16.5 56.890625 20.703125 56.890625 
C 30 56.890625 35.09375 61.890625 38 64.6875 
C 38 65.484375 38 66 37.40625 66 
C 37.296875 66 37.09375 66 36.296875 65.59375 
C 32.796875 64.09375 28.703125 63 23.703125 63 
C 20.703125 63 16.203125 63.359375 11.296875 65.484375 
C 10.203125 66 10 66 9.90625 66 
C 9.40625 66 9.296875 65.890625 9.296875 63.90625 
L 9.296875 34.859375 
C 9.296875 33.015625 9.296875 32.5 10.296875 32.5 
C 10.796875 32.5 11 32.703125 11.5 33.421875 
C 14.703125 38.046875 19.09375 40 24.09375 40 
C 27.59375 40 35.09375 37.734375 35.09375 20.203125 
C 35.09375 16.984375 35.09375 11.1875 32.09375 6.59375 
C 29.59375 2.484375 25.703125 0.390625 21.40625 0.390625 
C 14.796875 0.390625 8.09375 4.984375 6.296875 12.6875 
C 6.703125 12.59375 7.5 12.390625 7.90625 12.390625 
C 9.203125 12.390625 11.703125 13.09375 11.703125 16.1875 
C 11.703125 18.890625 9.796875 20 7.90625 20 
C 5.59375 20 4.09375 18.59375 4.09375 15.796875 
C 4.09375 7.09375 11 -2 21.59375 -2 
C 31.90625 -2 41.703125 6.890625 41.703125 19.796875 
C 41.703125 32.09375 33.90625 41.59375 24.203125 41.59375 
C 19.09375 41.59375 14.796875 39.6875 11.40625 36 
z
" id="CMR17-53"/>
    </defs>
    <g transform="translate(590.743439 197.577748)scale(0.3 -0.3)">
     <use transform="scale(0.996264)" xlink:href="#CMR17-49"/>
     <use transform="translate(45.690477 0)scale(0.996264)" xlink:href="#CMR17-54"/>
     <use transform="translate(91.380954 0)scale(0.996264)" xlink:href="#CMR17-52"/>
     <use transform="translate(137.071431 0)scale(0.996264)" xlink:href="#CMR17-53"/>
    </g>
   </g>
   <g id="text_2">
    <!-- 1645 -->
    <g transform="translate(230.743439 557.577748)scale(0.3 -0.3)">
     <use transform="scale(0.996264)" xlink:href="#CMR17-49"/>
     <use transform="translate(45.690477 0)scale(0.996264)" xlink:href="#CMR17-54"/>
     <use transform="translate(91.380954 0)scale(0.996264)" xlink:href="#CMR17-52"/>
     <use transform="translate(137.071431 0)scale(0.996264)" xlink:href="#CMR17-53"/>
    </g>
   </g>
   <g id="text_3">
    <!-- 853 -->
    <defs>
     <path d="M 27.203125 35.765625 
C 33.5 38.96875 39.90625 43.796875 39.90625 51.53125 
C 39.90625 60.6875 31.09375 66 23 66 
C 13.90625 66 5.90625 59.375 5.90625 50.234375 
C 5.90625 47.71875 6.5 43.390625 10.40625 39.578125 
C 11.40625 38.578125 15.59375 35.5625 18.296875 33.65625 
C 13.796875 31.34375 3.296875 25.8125 3.296875 14.765625 
C 3.296875 4.40625 13.09375 -2 22.796875 -2 
C 33.5 -2 42.5 5.71875 42.5 15.96875 
C 42.5 25.109375 36.40625 29.328125 32.40625 32.046875 
z
M 14.09375 44.609375 
C 13.296875 45.109375 9.296875 48.21875 9.296875 52.9375 
C 9.296875 59.078125 15.59375 63.6875 22.796875 63.6875 
C 30.703125 63.6875 36.5 58.0625 36.5 51.53125 
C 36.5 42.1875 26.09375 36.859375 25.59375 36.859375 
C 25.5 36.859375 25.40625 36.859375 24.59375 37.46875 
z
M 32.5 24 
C 34 22.90625 38.796875 19.578125 38.796875 13.453125 
C 38.796875 6.015625 31.40625 0.390625 23 0.390625 
C 13.90625 0.390625 7 6.921875 7 14.859375 
C 7 22.796875 13.09375 29.4375 20 32.546875 
z
" id="CMR17-56"/>
     <path d="M 22.09375 34 
C 31 34 34.90625 26.140625 34.90625 17.09375 
C 34.90625 5.03125 28.5 0.390625 22.703125 0.390625 
C 17.40625 0.390625 8.796875 3.015625 6.09375 10.796875 
C 6.59375 10.59375 7.09375 10.59375 7.59375 10.59375 
C 10 10.59375 11.796875 12.1875 11.796875 14.796875 
C 11.796875 17.6875 9.59375 19 7.59375 19 
C 5.90625 19 3.296875 18.1875 3.296875 14.484375 
C 3.296875 5.234375 12.296875 -2 22.90625 -2 
C 34 -2 42.5 6.75 42.5 16.984375 
C 42.5 26.84375 34.5 34 25 35.09375 
C 32.59375 36.671875 39.90625 43.375 39.90625 52.390625 
C 39.90625 60.25 32 66 23 66 
C 13.90625 66 5.90625 60.34375 5.90625 52.296875 
C 5.90625 48.796875 8.5 48.1875 9.796875 48.1875 
C 11.90625 48.1875 13.703125 49.484375 13.703125 52.09375 
C 13.703125 54.6875 11.90625 56 9.796875 56 
C 9.40625 56 8.90625 56 8.5 55.796875 
C 11.40625 62.484375 19.296875 63.6875 22.796875 63.6875 
C 26.296875 63.6875 32.90625 61.96875 32.90625 52.296875 
C 32.90625 49.484375 32.5 44.546875 29.09375 40.21875 
C 26.09375 36.390625 22.703125 36.1875 19.40625 35.890625 
C 18.90625 35.890625 16.59375 35.6875 16.203125 35.6875 
C 15.5 35.59375 15.09375 35.5 15.09375 34.796875 
C 15.09375 34.09375 15.203125 34 17.203125 34 
z
" id="CMR17-51"/>
    </defs>
    <g transform="translate(320.743439 107.577748)scale(0.15 -0.15)">
     <use transform="scale(0.996264)" xlink:href="#CMR17-56"/>
     <use transform="translate(45.690477 0)scale(0.996264)" xlink:href="#CMR17-53"/>
     <use transform="translate(91.380954 0)scale(0.996264)" xlink:href="#CMR17-51"/>
    </g>
   </g>
   <g id="text_4">
    <!-- 853 -->
    <g transform="translate(140.743439 287.577748)scale(0.15 -0.15)">
     <use transform="scale(0.996264)" xlink:href="#CMR17-56"/>
     <use transform="translate(45.690477 0)scale(0.996264)" xlink:href="#CMR17-53"/>
     <use transform="translate(91.380954 0)scale(0.996264)" xlink:href="#CMR17-51"/>
    </g>
   </g>
   <g id="text_5">
    <!-- 946 -->
    <defs>
     <path d="M 35.203125 29.234375 
C 35.203125 7 26.09375 0.390625 18.59375 0.390625 
C 16.296875 0.390625 10.703125 0.671875 8.40625 4.390625 
C 11 4 12.90625 5.390625 12.90625 7.890625 
C 12.90625 10.59375 10.703125 11.5 9.296875 11.5 
C 8.40625 11.5 5.703125 11.09375 5.703125 7.6875 
C 5.703125 1.0625 11.59375 -2 18.796875 -2 
C 30.296875 -2 42 10.390625 42 32.65625 
C 42 60.265625 30.796875 66 23.203125 66 
C 13.296875 66 3.796875 57.25 3.796875 43.75 
C 3.796875 31.25 11.90625 22 22.09375 22 
C 30.5 22 34.203125 29.84375 35.203125 33.15625 
z
M 22.296875 23.59375 
C 19.59375 23.59375 15.796875 24.09375 12.703125 30.140625 
C 10.59375 34.078125 10.59375 38.703125 10.59375 43.640625 
C 10.59375 49.59375 10.59375 53.71875 13.40625 58.15625 
C 14.796875 60.265625 17.40625 63.6875 23.203125 63.6875 
C 35 63.6875 35 45.453125 35 41.421875 
C 35 34.265625 31.796875 23.59375 22.296875 23.59375 
z
" id="CMR17-57"/>
    </defs>
    <g transform="translate(680.743439 467.577748)scale(0.15 -0.15)">
     <use transform="scale(0.996264)" xlink:href="#CMR17-57"/>
     <use transform="translate(45.690477 0)scale(0.996264)" xlink:href="#CMR17-52"/>
     <use transform="translate(91.380954 0)scale(0.996264)" xlink:href="#CMR17-54"/>
    </g>
   </g>
   <g id="text_6">
    <!-- 946 -->
    <g transform="translate(500.743439 647.577748)scale(0.15 -0.15)">
     <use transform="scale(0.996264)" xlink:href="#CMR17-57"/>
     <use transform="translate(45.690477 0)scale(0.996264)" xlink:href="#CMR17-52"/>
     <use transform="translate(91.380954 0)scale(0.996264)" xlink:href="#CMR17-54"/>
    </g>
   </g>
   <g id="text_7">
    <!-- 776 -->
    <defs>
     <path d="M 45.09375 61.796875 
L 45.09375 64 
L 21.59375 64 
C 9.90625 64 9.703125 65.09375 9.296875 67 
L 7.5 67 
L 4.59375 48.5 
L 6.40625 48.5 
C 6.703125 50.40625 7.40625 55.5 8.59375 57.390625 
C 9.203125 58.1875 16.59375 58.1875 18.296875 58.1875 
L 40.296875 58.1875 
L 29.203125 41.71875 
C 21.796875 30.640625 16.703125 15.671875 16.703125 2.59375 
C 16.703125 1.390625 16.703125 -2 20.296875 -2 
C 23.90625 -2 23.90625 1.390625 23.90625 2.6875 
L 23.90625 7.28125 
C 23.90625 23.65625 26.703125 34.4375 31.296875 41.3125 
z
" id="CMR17-55"/>
    </defs>
    <g transform="translate(185.743439 62.577748)scale(0.15 -0.15)">
     <use transform="scale(0.996264)" xlink:href="#CMR17-55"/>
     <use transform="translate(45.690477 0)scale(0.996264)" xlink:href="#CMR17-55"/>
     <use transform="translate(91.380954 0)scale(0.996264)" xlink:href="#CMR17-54"/>
    </g>
   </g>
   <g id="text_8">
    <!-- 776 -->
    <g transform="translate(95.743439 152.577748)scale(0.15 -0.15)">
     <use transform="scale(0.996264)" xlink:href="#CMR17-55"/>
     <use transform="translate(45.690477 0)scale(0.996264)" xlink:href="#CMR17-55"/>
     <use transform="translate(91.380954 0)scale(0.996264)" xlink:href="#CMR17-54"/>
    </g>
   </g>
   <g id="text_9">
    <!-- 846 -->
    <g transform="translate(365.743439 242.577748)scale(0.1 -0.1)">
     <use transform="scale(0.996264)" xlink:href="#CMR17-56"/>
     <use transform="translate(45.690477 0)scale(0.996264)" xlink:href="#CMR17-52"/>
     <use transform="translate(91.380954 0)scale(0.996264)" xlink:href="#CMR17-54"/>
    </g>
   </g>
   <g id="text_10">
    <!-- 846 -->
    <g transform="translate(275.743439 332.577748)scale(0.1 -0.1)">
     <use transform="scale(0.996264)" xlink:href="#CMR17-56"/>
     <use transform="translate(45.690477 0)scale(0.996264)" xlink:href="#CMR17-52"/>
     <use transform="translate(91.380954 0)scale(0.996264)" xlink:href="#CMR17-54"/>
    </g>
   </g>
   <g id="text_11">
    <!-- 831 -->
    <g transform="translate(545.743439 422.577748)scale(0.1 -0.1)">
     <use transform="scale(0.996264)" xlink:href="#CMR17-56"/>
     <use transform="translate(45.690477 0)scale(0.996264)" xlink:href="#CMR17-51"/>
     <use transform="translate(91.380954 0)scale(0.996264)" xlink:href="#CMR17-49"/>
    </g>
   </g>
   <g id="text_12">
    <!-- 831 -->
    <g transform="translate(455.743439 512.577748)scale(0.1 -0.1)">
     <use transform="scale(0.996264)" xlink:href="#CMR17-56"/>
     <use transform="translate(45.690477 0)scale(0.996264)" xlink:href="#CMR17-51"/>
     <use transform="translate(91.380954 0)scale(0.996264)" xlink:href="#CMR17-49"/>
    </g>
   </g>
   <g id="text_13">
    <!-- 913 -->
    <g transform="translate(725.743439 602.577748)scale(0.1 -0.1)">
     <use transform="scale(0.996264)" xlink:href="#CMR17-57"/>
     <use transform="translate(45.690477 0)scale(0.996264)" xlink:href="#CMR17-49"/>
     <use transform="translate(91.380954 0)scale(0.996264)" xlink:href="#CMR17-51"/>
    </g>
   </g>
   <g id="text_14">
    <!-- 913 -->
    <g transform="translate(635.743439 692.577748)scale(0.1 -0.1)">
     <use transform="scale(0.996264)" xlink:href="#CMR17-57"/>
     <use transform="translate(45.690477 0)scale(0.996264)" xlink:href="#CMR17-49"/>
     <use transform="translate(91.380954 0)scale(0.996264)" xlink:href="#CMR17-51"/>
    </g>
   </g>
   <g id="text_15">
    <!-- 424 -->
    <defs>
     <path d="M 41.703125 15.46875 
L 39.90625 15.46875 
C 38.90625 8.390625 38.09375 7.1875 37.703125 6.59375 
C 37.203125 5.796875 30 5.796875 28.59375 5.796875 
L 9.40625 5.796875 
C 13 9.6875 20 16.765625 28.5 24.9375 
C 34.59375 30.71875 41.703125 37.5 41.703125 47.390625 
C 41.703125 59.1875 32.296875 66 21.796875 66 
C 10.796875 66 4.09375 56.296875 4.09375 47.296875 
C 4.09375 43.390625 7 42.890625 8.203125 42.890625 
C 9.203125 42.890625 12.203125 43.484375 12.203125 46.984375 
C 12.203125 50.09375 9.59375 51 8.203125 51 
C 7.59375 51 7 50.890625 6.59375 50.6875 
C 8.5 59.1875 14.296875 63.390625 20.40625 63.390625 
C 29.09375 63.390625 34.796875 56.5 34.796875 47.390625 
C 34.796875 38.703125 29.703125 31.21875 24 24.734375 
L 4.09375 2.296875 
L 4.09375 0 
L 39.296875 0 
z
" id="CMR17-50"/>
    </defs>
    <g transform="translate(118.243439 40.077748)scale(0.1 -0.1)">
     <use transform="scale(0.996264)" xlink:href="#CMR17-52"/>
     <use transform="translate(45.690477 0)scale(0.996264)" xlink:href="#CMR17-50"/>
     <use transform="translate(91.380954 0)scale(0.996264)" xlink:href="#CMR17-52"/>
    </g>
   </g>
   <g id="text_16">
    <!-- 424 -->
    <g transform="translate(73.243439 85.077748)scale(0.1 -0.1)">
     <use transform="scale(0.996264)" xlink:href="#CMR17-52"/>
     <use transform="translate(45.690477 0)scale(0.996264)" xlink:href="#CMR17-50"/>
     <use transform="translate(91.380954 0)scale(0.996264)" xlink:href="#CMR17-52"/>
    </g>
   </g>
   <g id="text_17">
    <!-- 457 -->
    <g transform="translate(208.243439 130.077748)scale(0.1 -0.1)">
     <use transform="scale(0.996264)" xlink:href="#CMR17-52"/>
     <use transform="translate(45.690477 0)scale(0.996264)" xlink:href="#CMR17-53"/>
     <use transform="translate(91.380954 0)scale(0.996264)" xlink:href="#CMR17-55"/>
    </g>
   </g>
   <g id="text_18">
    <!-- 457 -->
    <g transform="translate(163.243439 175.077748)scale(0.1 -0.1)">
     <use transform="scale(0.996264)" xlink:href="#CMR17-52"/>
     <use transform="translate(45.690477 0)scale(0.996264)" xlink:href="#CMR17-53"/>
     <use transform="translate(91.380954 0)scale(0.996264)" xlink:href="#CMR17-55"/>
    </g>
   </g>
   <g id="text_19">
    <!-- 437 -->
    <g transform="translate(298.243439 220.077748)scale(0.075 -0.075)">
     <use transform="scale(0.996264)" xlink:href="#CMR17-52"/>
     <use transform="translate(45.690477 0)scale(0.996264)" xlink:href="#CMR17-51"/>
     <use transform="translate(91.380954 0)scale(0.996264)" xlink:href="#CMR17-55"/>
    </g>
   </g>
   <g id="text_20">
    <!-- 437 -->
    <g transform="translate(253.243439 265.077748)scale(0.075 -0.075)">
     <use transform="scale(0.996264)" xlink:href="#CMR17-52"/>
     <use transform="translate(45.690477 0)scale(0.996264)" xlink:href="#CMR17-51"/>
     <use transform="translate(91.380954 0)scale(0.996264)" xlink:href="#CMR17-55"/>
    </g>
   </g>
   <g id="text_21">
    <!-- 493 -->
    <g transform="translate(388.243439 310.077748)scale(0.075 -0.075)">
     <use transform="scale(0.996264)" xlink:href="#CMR17-52"/>
     <use transform="translate(45.690477 0)scale(0.996264)" xlink:href="#CMR17-57"/>
     <use transform="translate(91.380954 0)scale(0.996264)" xlink:href="#CMR17-51"/>
    </g>
   </g>
   <g id="text_22">
    <!-- 493 -->
    <g transform="translate(343.243439 355.077748)scale(0.075 -0.075)">
     <use transform="scale(0.996264)" xlink:href="#CMR17-52"/>
     <use transform="translate(45.690477 0)scale(0.996264)" xlink:href="#CMR17-57"/>
     <use transform="translate(91.380954 0)scale(0.996264)" xlink:href="#CMR17-51"/>
    </g>
   </g>
   <g id="text_23">
    <!-- 487 -->
    <g transform="translate(478.243439 400.077748)scale(0.075 -0.075)">
     <use transform="scale(0.996264)" xlink:href="#CMR17-52"/>
     <use transform="translate(45.690477 0)scale(0.996264)" xlink:href="#CMR17-56"/>
     <use transform="translate(91.380954 0)scale(0.996264)" xlink:href="#CMR17-55"/>
    </g>
   </g>
   <g id="text_24">
    <!-- 487 -->
    <g transform="translate(433.243439 445.077748)scale(0.075 -0.075)">
     <use transform="scale(0.996264)" xlink:href="#CMR17-52"/>
     <use transform="translate(45.690477 0)scale(0.996264)" xlink:href="#CMR17-56"/>
     <use transform="translate(91.380954 0)scale(0.996264)" xlink:href="#CMR17-55"/>
    </g>
   </g>
   <g id="text_25">
    <!-- 475 -->
    <g transform="translate(568.243439 490.077748)scale(0.075 -0.075)">
     <use transform="scale(0.996264)" xlink:href="#CMR17-52"/>
     <use transform="translate(45.690477 0)scale(0.996264)" xlink:href="#CMR17-55"/>
     <use transform="translate(91.380954 0)scale(0.996264)" xlink:href="#CMR17-53"/>
    </g>
   </g>
   <g id="text_26">
    <!-- 475 -->
    <g transform="translate(523.243439 535.077748)scale(0.075 -0.075)">
     <use transform="scale(0.996264)" xlink:href="#CMR17-52"/>
     <use transform="translate(45.690477 0)scale(0.996264)" xlink:href="#CMR17-55"/>
     <use transform="translate(91.380954 0)scale(0.996264)" xlink:href="#CMR17-53"/>
    </g>
   </g>
   <g id="text_27">
    <!-- 489 -->
    <g transform="translate(658.243439 580.077748)scale(0.075 -0.075)">
     <use transform="scale(0.996264)" xlink:href="#CMR17-52"/>
     <use transform="translate(45.690477 0)scale(0.996264)" xlink:href="#CMR17-56"/>
     <use transform="translate(91.380954 0)scale(0.996264)" xlink:href="#CMR17-57"/>
    </g>
   </g>
   <g id="text_28">
    <!-- 489 -->
    <g transform="translate(613.243439 625.077748)scale(0.075 -0.075)">
     <use transform="scale(0.996264)" xlink:href="#CMR17-52"/>
     <use transform="translate(45.690477 0)scale(0.996264)" xlink:href="#CMR17-56"/>
     <use transform="translate(91.380954 0)scale(0.996264)" xlink:href="#CMR17-57"/>
    </g>
   </g>
   <g id="text_29">
    <!-- 485 -->
    <g transform="translate(748.243439 670.077748)scale(0.075 -0.075)">
     <use transform="scale(0.996264)" xlink:href="#CMR17-52"/>
     <use transform="translate(45.690477 0)scale(0.996264)" xlink:href="#CMR17-56"/>
     <use transform="translate(91.380954 0)scale(0.996264)" xlink:href="#CMR17-53"/>
    </g>
   </g>
   <g id="text_30">
    <!-- 485 -->
    <g transform="translate(703.243439 715.077748)scale(0.075 -0.075)">
     <use transform="scale(0.996264)" xlink:href="#CMR17-52"/>
     <use transform="translate(45.690477 0)scale(0.996264)" xlink:href="#CMR17-56"/>
     <use transform="translate(91.380954 0)scale(0.996264)" xlink:href="#CMR17-53"/>
    </g>
   </g>
  </g>
 </g>
 <defs>
  <clipPath id="pc93450107f">
   <rect height="720" width="720" x="50.743439" y="17.577748"/>
  </clipPath>
 </defs>
</svg>
